<svg width="19" height="20" viewBox="0 0 19 20" fill="none" xmlns="http://www.w3.org/2000/svg">
<path d="M4.4145 18.797C4.07417 18.4567 3.904 18.0436 3.904 17.5578C3.904 17.0718 4.07417 16.6586 4.4145 16.3183C4.75483 15.9779 5.16792 15.8077 5.65375 15.8077C6.13975 15.8077 6.55292 15.9779 6.89325 16.3183C7.23358 16.6586 7.40375 17.0718 7.40375 17.5578C7.40375 18.0436 7.23358 18.4567 6.89325 18.797C6.55292 19.1375 6.13975 19.3078 5.65375 19.3078C5.16792 19.3078 4.75483 19.1375 4.4145 18.797ZM14.1068 18.797C13.7664 18.4567 13.5963 18.0436 13.5963 17.5578C13.5963 17.0718 13.7664 16.6586 14.1068 16.3183C14.4471 15.9779 14.8603 15.8077 15.3463 15.8077C15.8321 15.8077 16.2452 15.9779 16.5855 16.3183C16.9258 16.6586 17.096 17.0718 17.096 17.5578C17.096 18.0436 16.9258 18.4567 16.5855 18.797C16.2452 19.1375 15.8321 19.3078 15.3463 19.3078C14.8603 19.3078 14.4471 19.1375 14.1068 18.797ZM4.51525 3.5L7.05 8.80775H13.8673C13.9249 8.80775 13.9763 8.79333 14.0213 8.7645C14.0661 8.73567 14.1045 8.69558 14.1365 8.64425L16.8193 3.76925C16.8578 3.69875 16.8609 3.63625 16.8288 3.58175C16.7968 3.52725 16.7423 3.5 16.6653 3.5H4.51525ZM3.79625 2H17.6808C18.0898 2 18.399 2.17408 18.6085 2.52225C18.8182 2.87025 18.8282 3.22567 18.6385 3.5885L15.4345 9.39225C15.2705 9.68075 15.0536 9.90542 14.7838 10.0662C14.5138 10.2273 14.2179 10.3077 13.8963 10.3077H6.6L5.44225 12.423C5.39092 12.5 5.38933 12.5833 5.4375 12.673C5.4855 12.7628 5.55758 12.8077 5.65375 12.8077H17.096V14.3077H5.65375C4.98708 14.3077 4.48617 14.0203 4.151 13.4453C3.81567 12.8702 3.80383 12.2962 4.1155 11.723L5.54225 9.15775L1.904 1.5H0V0H2.84625L3.79625 2Z" fill="#6B6B6B"/>
</svg>
