<svg width="41" height="41" viewBox="0 0 41 41" fill="none" xmlns="http://www.w3.org/2000/svg">
<rect x="39.64" y="39.64" width="39.2128" height="39.2128" rx="19.6064" transform="rotate(-180 39.64 39.64)" fill="white"/>
<rect x="39.64" y="39.64" width="39.2128" height="39.2128" rx="19.6064" transform="rotate(-180 39.64 39.64)" stroke="#DCDCDC" stroke-width="0.854357"/>
<path d="M15.3562 20.0319L21.1795 25.8552C21.3776 26.0533 21.4734 26.2877 21.4667 26.5584C21.4601 26.8291 21.3578 27.0634 21.1597 27.2615C20.9617 27.4596 20.7273 27.5586 20.4566 27.5586C20.1859 27.5586 19.9515 27.4596 19.7534 27.2615L13.6726 21.1609C13.5142 21.0024 13.3953 20.8242 13.3161 20.6261C13.2369 20.428 13.1972 20.23 13.1972 20.0319C13.1972 19.8338 13.2369 19.6357 13.3161 19.4377C13.3953 19.2396 13.5142 19.0613 13.6726 18.9029L19.7732 12.8022C19.9713 12.6042 20.2024 12.5084 20.4665 12.515C20.7306 12.5216 20.9617 12.624 21.1597 12.8221C21.3578 13.0201 21.4568 13.2545 21.4568 13.5252C21.4568 13.7959 21.3578 14.0303 21.1597 14.2284L15.3562 20.0319Z" fill="#9D9D9D"/>
</svg>
