<svg width="36" height="36" viewBox="0 0 36 36" fill="none" xmlns="http://www.w3.org/2000/svg"><rect width="36" height="36" rx="8" fill="#2563EB"/><path d="M10 12C10 11.4477 10.4477 11 11 11H25C25.5523 11 26 11.4477 26 12V15C26 15.5523 25.5523 16 25 16H11C10.4477 16 10 15.5523 10 15V12Z" fill="white"/><path d="M10 18.5C10 17.9477 10.4477 17.5 11 17.5H25C25.5523 17.5 26 17.9477 26 18.5V21.5C26 22.0523 25.5523 22.5 25 22.5H11C10.4477 22.5 10 22.0523 10 21.5V18.5Z" fill="white" opacity="0.8"/><path d="M10 25C10 24.4477 10.4477 24 11 24H25C25.5523 24 26 24.4477 26 25C26 25.5523 25.5523 26 25 26H11C10.4477 26 10 25.5523 10 25Z" fill="white" opacity="0.6"/><circle cx="29" cy="10" r="4" fill="#F59E0B"/><path d="M28 9H30M29 8V10V8ZM29 10V12V10ZM29 10H31H29ZM29 10H27H29Z" stroke="white" stroke-width="1.5" stroke-linecap="round"/></svg>