<svg width="41" height="41" viewBox="0 0 41 41" fill="none" xmlns="http://www.w3.org/2000/svg">
<rect x="0.427179" y="0.427179" width="39.2128" height="39.2128" rx="19.6064" fill="white"/>
<rect x="0.427179" y="0.427179" width="39.2128" height="39.2128" rx="19.6064" stroke="#DCDCDC" stroke-width="0.854357"/>
<path d="M24.7109 20.0336L18.8876 14.2103C18.6895 14.0122 18.5938 13.7778 18.6004 13.5071C18.607 13.2364 18.7094 13.002 18.9074 12.8039C19.1055 12.6059 19.3399 12.5068 19.6106 12.5068C19.8813 12.5068 20.1157 12.6059 20.3137 12.8039L26.3946 18.9046C26.553 19.063 26.6719 19.2413 26.7511 19.4394C26.8303 19.6374 26.8699 19.8355 26.8699 20.0336C26.8699 20.2316 26.8303 20.4297 26.7511 20.6278C26.6719 20.8259 26.553 21.0041 26.3946 21.1626L20.2939 27.2632C20.0959 27.4613 19.8648 27.557 19.6007 27.5504C19.3366 27.5438 19.1055 27.4415 18.9074 27.2434C18.7094 27.0453 18.6103 26.8109 18.6103 26.5402C18.6103 26.2695 18.7094 26.0352 18.9074 25.8371L24.7109 20.0336Z" fill="#9D9D9D"/>
</svg>
