<svg width="16" height="16" viewBox="0 0 16 16" fill="none" xmlns="http://www.w3.org/2000/svg">
<path d="M14.7934 15.7596L9.03604 10.002C8.57771 10.3804 8.05062 10.6766 7.45479 10.8905C6.85896 11.1043 6.24258 11.2113 5.60565 11.2113C4.04028 11.2113 2.71463 10.6684 1.62869 9.5826C0.542896 8.49666 0 7.17101 0 5.60565C0 4.04028 0.542896 2.71463 1.62869 1.62869C2.71463 0.542896 4.04028 0 5.60565 0C7.17101 0 8.49666 0.542896 9.5826 1.62869C10.6684 2.71463 11.2113 4.04028 11.2113 5.60565C11.2113 6.2603 11.1014 6.88554 10.8818 7.48137C10.6619 8.07721 10.3686 8.59543 10.002 9.03604L15.7593 14.7934L14.7934 15.7596ZM5.60565 9.83652C6.78677 9.83652 7.78716 9.42662 8.60681 8.60681C9.42662 7.78716 9.83652 6.78677 9.83652 5.60565C9.83652 4.42452 9.42662 3.42413 8.60681 2.60448C7.78716 1.78467 6.78677 1.37477 5.60565 1.37477C4.42452 1.37477 3.42413 1.78467 2.60448 2.60448C1.78467 3.42413 1.37477 4.42452 1.37477 5.60565C1.37477 6.78677 1.78467 7.78716 2.60448 8.60681C3.42413 9.42662 4.42452 9.83652 5.60565 9.83652Z" fill="#676767"/>
</svg>
