<svg width="22" height="15" viewBox="0 0 22 15" fill="none" xmlns="http://www.w3.org/2000/svg">
<path d="M1.49852 14.79C1.08831 14.79 0.736007 14.6428 0.441604 14.3484C0.147201 14.0541 0 13.7019 0 13.2917H3.49044C3.02737 13.2917 2.63542 13.1313 2.31458 12.8104C1.99375 12.4896 1.83333 12.0976 1.83333 11.6346V1.6571C1.83333 1.19403 1.99375 0.802083 2.31458 0.48125C2.63542 0.160417 3.02737 0 3.49044 0H17.5929C18.056 0 18.4479 0.160417 18.7688 0.48125C19.0896 0.802083 19.25 1.19403 19.25 1.6571V11.6346C19.25 12.0976 19.0896 12.4896 18.7688 12.8104C18.4479 13.1313 18.056 13.2917 17.5929 13.2917H21.0833C21.0833 13.7019 20.9361 14.0541 20.6417 14.3484C20.3473 14.6428 19.995 14.79 19.5848 14.79H1.49852ZM11.0669 13.8875C11.2104 13.7442 11.2821 13.5691 11.2821 13.3623C11.2821 13.1554 11.2104 12.9802 11.0669 12.8368C10.9236 12.6935 10.7485 12.6218 10.5417 12.6218C10.3348 12.6218 10.1597 12.6935 10.0164 12.8368C9.87296 12.9802 9.80123 13.1554 9.80123 13.3623C9.80123 13.5691 9.87296 13.7442 10.0164 13.8875C10.1597 14.0308 10.3348 14.1025 10.5417 14.1025C10.7485 14.1025 10.9236 14.0308 11.0669 13.8875ZM3.49044 11.9167H17.5929C17.6635 11.9167 17.7281 11.8873 17.7868 11.8287C17.8456 11.7698 17.875 11.7051 17.875 11.6346V1.6571C17.875 1.58652 17.8456 1.5219 17.7868 1.46323C17.7281 1.40441 17.6635 1.375 17.5929 1.375H3.49044C3.41985 1.375 3.35523 1.40441 3.29656 1.46323C3.23774 1.5219 3.20833 1.58652 3.20833 1.6571V11.6346C3.20833 11.7051 3.23774 11.7698 3.29656 11.8287C3.35523 11.8873 3.41985 11.9167 3.49044 11.9167Z" fill="#71716F"/>
</svg>
