<svg width="17" height="17" viewBox="0 0 17 17" fill="none" xmlns="http://www.w3.org/2000/svg">
<path d="M9.72813 7.68854C9.5066 7.46701 9.39583 7.19583 9.39583 6.875C9.39583 6.55417 9.5066 6.28299 9.72813 6.06146C9.94965 5.83993 10.2208 5.72917 10.5417 5.72917C10.8625 5.72917 11.1337 5.83993 11.3552 6.06146C11.5767 6.28299 11.6875 6.55417 11.6875 6.875C11.6875 7.19583 11.5767 7.46701 11.3552 7.68854C11.1337 7.91007 10.8625 8.02083 10.5417 8.02083C10.2208 8.02083 9.94965 7.91007 9.72813 7.68854ZM5.14479 7.68854C4.92326 7.46701 4.8125 7.19583 4.8125 6.875C4.8125 6.55417 4.92326 6.28299 5.14479 6.06146C5.36632 5.83993 5.6375 5.72917 5.95833 5.72917C6.27917 5.72917 6.55035 5.83993 6.77188 6.06146C6.9934 6.28299 7.10417 6.55417 7.10417 6.875C7.10417 7.19583 6.9934 7.46701 6.77188 7.68854C6.55035 7.91007 6.27917 8.02083 5.95833 8.02083C5.6375 8.02083 5.36632 7.91007 5.14479 7.68854ZM5.76354 12.0771C5.02257 11.5729 4.47639 10.9083 4.125 10.0833H12.375C12.0236 10.9083 11.4774 11.5729 10.7365 12.0771C9.99549 12.5813 9.16667 12.8333 8.25 12.8333C7.33333 12.8333 6.50451 12.5813 5.76354 12.0771ZM5.03021 15.8469C4.02951 15.4115 3.15868 14.8233 2.41771 14.0823C1.67674 13.3413 1.08854 12.4705 0.653125 11.4698C0.217708 10.4691 0 9.39583 0 8.25C0 7.10417 0.217708 6.0309 0.653125 5.03021C1.08854 4.02951 1.67674 3.15868 2.41771 2.41771C3.15868 1.67674 4.02951 1.08854 5.03021 0.653125C6.0309 0.217708 7.10417 0 8.25 0C9.39583 0 10.4691 0.217708 11.4698 0.653125C12.4705 1.08854 13.3413 1.67674 14.0823 2.41771C14.8233 3.15868 15.4115 4.02951 15.8469 5.03021C16.2823 6.0309 16.5 7.10417 16.5 8.25C16.5 9.39583 16.2823 10.4691 15.8469 11.4698C15.4115 12.4705 14.8233 13.3413 14.0823 14.0823C13.3413 14.8233 12.4705 15.4115 11.4698 15.8469C10.4691 16.2823 9.39583 16.5 8.25 16.5C7.10417 16.5 6.0309 16.2823 5.03021 15.8469ZM12.7875 12.7875C14.0403 11.5347 14.6667 10.0222 14.6667 8.25C14.6667 6.47778 14.0403 4.96528 12.7875 3.7125C11.5347 2.45972 10.0222 1.83333 8.25 1.83333H7.975C7.88333 1.83333 7.79167 1.84861 7.7 1.87917C7.60833 1.97083 7.54722 2.07014 7.51667 2.17708C7.48611 2.28403 7.47083 2.39861 7.47083 2.52083C7.47083 2.84167 7.5816 3.11285 7.80313 3.33438C8.02465 3.5559 8.29583 3.66667 8.61667 3.66667C8.75417 3.66667 8.88021 3.64375 8.99479 3.59792C9.10938 3.55208 9.22778 3.52917 9.35 3.52917C9.53333 3.52917 9.68611 3.59792 9.80833 3.73542C9.93056 3.87292 9.99167 4.03333 9.99167 4.21667C9.99167 4.56806 9.82743 4.7934 9.49896 4.89271C9.17049 4.99201 8.87639 5.04167 8.61667 5.04167C7.92917 5.04167 7.33715 4.7934 6.84063 4.29688C6.3441 3.80035 6.09583 3.20833 6.09583 2.52083V2.38333C6.09583 2.3375 6.10347 2.27639 6.11875 2.2C4.85069 2.65833 3.81944 3.42986 3.025 4.51458C2.23056 5.59931 1.83333 6.84444 1.83333 8.25C1.83333 10.0222 2.45972 11.5347 3.7125 12.7875C4.96528 14.0403 6.47778 14.6667 8.25 14.6667C10.0222 14.6667 11.5347 14.0403 12.7875 12.7875Z" fill="#71716F"/>
</svg>
