<svg width="18" height="16" viewBox="0 0 18 16" fill="none" xmlns="http://www.w3.org/2000/svg">
<path d="M2.67071 15.5833V14.2083H14.746V15.5833H2.67071ZM2.64435 12.6571L1.39608 5.47708C1.36553 5.48289 1.33115 5.48816 1.29296 5.4929C1.25476 5.49763 1.22039 5.5 1.18983 5.5C0.854944 5.5 0.572917 5.38435 0.34375 5.15304C0.114583 4.92158 0 4.64062 0 4.31017C0 3.97467 0.114583 3.68951 0.34375 3.45469C0.572917 3.22002 0.855173 3.10269 1.19052 3.10269C1.52572 3.10269 1.81065 3.22002 2.04531 3.45469C2.28013 3.68951 2.39754 3.97467 2.39754 4.31017C2.39754 4.39542 2.39044 4.47463 2.37623 4.54781C2.36217 4.62084 2.33987 4.68967 2.30931 4.75429L5.20919 5.98469L8.00319 2.17181C7.85285 2.06716 7.73155 1.92951 7.63927 1.75885C7.54699 1.5882 7.50085 1.40441 7.50085 1.20748C7.50085 0.872132 7.61819 0.587048 7.85285 0.352229C8.08752 0.11741 8.37253 0 8.70787 0C9.04307 0 9.32823 0.117256 9.56335 0.35177C9.79833 0.586131 9.91581 0.870833 9.91581 1.20587C9.91581 1.40678 9.86967 1.59187 9.7774 1.76115C9.68512 1.93027 9.56381 2.06716 9.41348 2.17181L12.2075 5.98469L15.1074 4.75429C15.0838 4.69181 15.0633 4.62298 15.0457 4.54781C15.028 4.4728 15.0191 4.39358 15.0191 4.31017C15.0191 3.97467 15.1337 3.68951 15.3629 3.45469C15.592 3.22002 15.8743 3.10269 16.2096 3.10269C16.5448 3.10269 16.8298 3.22002 17.0647 3.45469C17.2993 3.68951 17.4167 3.97467 17.4167 4.31017C17.4167 4.63971 17.2991 4.92044 17.064 5.15235C16.8289 5.38412 16.5433 5.5 16.2074 5.5C16.1805 5.5 16.1502 5.49618 16.1166 5.48854C16.0831 5.4809 16.0501 5.47708 16.0176 5.47708L14.7723 12.6571H2.64435ZM3.81471 11.2821H13.602L14.4622 6.55577L11.7386 7.68946L8.70833 3.531L5.67806 7.68946L2.95442 6.55577L3.81471 11.2821Z" fill="#71716F"/>
</svg>
