<svg width="18" height="18" viewBox="0 0 18 18" fill="none" xmlns="http://www.w3.org/2000/svg">
<path d="M6.49756 17.4167L6.14854 14.6243C5.90303 14.5421 5.65125 14.427 5.39321 14.2789C5.13532 14.1307 4.9047 13.9721 4.70135 13.8029L2.11521 14.8958L0 11.2292L2.2369 9.5386C2.21581 9.40233 2.20084 9.26544 2.19198 9.12794C2.18312 8.99044 2.17869 8.85347 2.17869 8.71704C2.17869 8.58672 2.18312 8.45426 2.19198 8.31967C2.20084 8.18507 2.21581 8.03787 2.2369 7.87806L0 6.1875L2.11521 2.53848L4.69242 3.62267C4.91349 3.44758 5.14945 3.28747 5.40031 3.14233C5.65117 2.99719 5.89768 2.88055 6.13983 2.7924L6.49756 0H10.7284L11.0775 2.8011C11.3525 2.90102 11.6013 3.01767 11.8239 3.15104C12.0466 3.28442 12.2714 3.44163 12.4983 3.62267L15.1108 2.53848L17.226 6.1875L14.9538 7.90442C14.9867 8.05246 15.0046 8.19088 15.0077 8.31967C15.0106 8.44831 15.012 8.57786 15.012 8.70833C15.012 8.83285 15.009 8.9595 15.0031 9.08829C14.9973 9.21693 14.9762 9.36413 14.9398 9.5299L17.1944 11.2292L15.0789 14.8958L12.4983 13.794C12.2714 13.975 12.0399 14.1352 11.8037 14.2743C11.5675 14.4137 11.3254 14.5274 11.0775 14.6156L10.7284 17.4167H6.49756ZM7.69633 16.0417H9.49804L9.82758 13.5861C10.2954 13.4639 10.7229 13.2903 11.11 13.0652C11.4973 12.8401 11.8708 12.5506 12.2304 12.1969L14.5079 13.1542L15.4105 11.5958L13.4221 10.0975C13.4985 9.86012 13.5504 9.62737 13.5779 9.39927C13.6055 9.17133 13.6194 8.94101 13.6194 8.70833C13.6194 8.46969 13.6055 8.23938 13.5779 8.0174C13.5504 7.79526 13.4985 7.56838 13.4221 7.33677L15.428 5.82083L14.5255 4.2625L12.2215 5.23371C11.9147 4.90585 11.5472 4.61618 11.1189 4.36471C10.6905 4.11324 10.2572 3.93517 9.81888 3.83052L9.52967 1.375H7.71054L7.40712 3.82181C6.93947 3.93227 6.50765 4.10147 6.11165 4.32942C5.71549 4.55751 5.3376 4.85131 4.97796 5.21079L2.7005 4.2625L1.79804 5.82083L3.77758 7.29621C3.70119 7.51376 3.64772 7.74003 3.61717 7.975C3.58661 8.20997 3.57133 8.45732 3.57133 8.71704C3.57133 8.95568 3.58661 9.18958 3.61717 9.41875C3.64772 9.64792 3.69829 9.87418 3.76887 10.0975L1.79804 11.5958L2.7005 13.1542L4.96925 12.1917C5.31712 12.5489 5.68906 12.8415 6.08506 13.0696C6.48122 13.2975 6.919 13.4726 7.39842 13.5949L7.69633 16.0417ZM8.62354 11.4583C9.38621 11.4583 10.0352 11.1907 10.5705 10.6553C11.1059 10.12 11.3735 9.471 11.3735 8.70833C11.3735 7.94567 11.1059 7.29667 10.5705 6.76133C10.0352 6.226 9.38621 5.95833 8.62354 5.95833C7.8514 5.95833 7.20004 6.226 6.66944 6.76133C6.13884 7.29667 5.87354 7.94567 5.87354 8.70833C5.87354 9.471 6.13884 10.12 6.66944 10.6553C7.20004 11.1907 7.8514 11.4583 8.62354 11.4583Z" fill="#71716F"/>
</svg>
