<svg width="19" height="19" viewBox="0 0 19 19" fill="none" xmlns="http://www.w3.org/2000/svg">
<path d="M5.7965 18.252C4.64033 17.7533 3.63467 17.0766 2.7795 16.2218C1.92433 15.3669 1.24725 14.3617 0.74825 13.206C0.249417 12.0503 0 10.8156 0 9.50175C0 8.18775 0.249333 6.95267 0.748 5.7965C1.24667 4.64033 1.92342 3.63467 2.77825 2.7795C3.63308 1.92433 4.63833 1.24725 5.794 0.74825C6.94967 0.249417 8.18442 0 9.49825 0C10.8123 0 12.0473 0.249333 13.2035 0.748C14.3597 1.24667 15.3653 1.92342 16.2205 2.77825C17.0757 3.63308 17.7528 4.63833 18.2518 5.794C18.7506 6.94967 19 8.18442 19 9.49825C19 10.8123 18.7507 12.0473 18.252 13.2035C17.7533 14.3597 17.0766 15.3653 16.2218 16.2205C15.3669 17.0757 14.3617 17.7528 13.206 18.2518C12.0503 18.7506 10.8156 19 9.50175 19C8.18775 19 6.95267 18.7507 5.7965 18.252ZM8.5 17.45V15.5C7.95 15.5 7.47917 15.3042 7.0875 14.9125C6.69583 14.5208 6.5 14.05 6.5 13.5V12.5L1.7 7.7C1.65 8 1.60417 8.3 1.5625 8.6C1.52083 8.9 1.5 9.2 1.5 9.5C1.5 11.5167 2.1625 13.2833 3.4875 14.8C4.8125 16.3167 6.48333 17.2 8.5 17.45ZM15.4 14.9C16.0833 14.15 16.6042 13.3125 16.9625 12.3875C17.3208 11.4625 17.5 10.4988 17.5 9.4965C17.5 7.85917 17.0474 6.36392 16.1423 5.01075C15.2371 3.65742 14.023 2.68075 12.5 2.08075V2.5C12.5 3.05 12.3042 3.52083 11.9125 3.9125C11.5208 4.30417 11.05 4.5 10.5 4.5H8.5V6.5C8.5 6.78333 8.40417 7.02083 8.2125 7.2125C8.02083 7.40417 7.78333 7.5 7.5 7.5H5.5V9.5H11.5C11.7833 9.5 12.0208 9.59583 12.2125 9.7875C12.4042 9.97917 12.5 10.2167 12.5 10.5V13.5H13.5C13.9333 13.5 14.325 13.6292 14.675 13.8875C15.025 14.1458 15.2667 14.4833 15.4 14.9Z" fill="#4C4C4C"/>
</svg>
