<svg width="16" height="15" viewBox="0 0 16 15" fill="none" xmlns="http://www.w3.org/2000/svg">
<path d="M4.96058 12.1458L7.84808 10.4042L10.7356 12.1687L9.97933 8.86875L12.5231 6.66875L9.17724 6.37083L7.84808 3.25417L6.51891 6.34792L3.17308 6.64583L5.71683 8.86875L4.96058 12.1458ZM7.84808 12.5583L4.04391 14.85C3.87585 14.9569 3.70016 15.0028 3.51683 14.9875C3.33349 14.9722 3.17308 14.9111 3.03558 14.8042C2.89808 14.6972 2.79113 14.5635 2.71474 14.4031C2.63835 14.2427 2.62308 14.0632 2.66891 13.8646L3.67724 9.53333L0.308494 6.62292C0.155716 6.48542 0.0602297 6.32882 0.0220353 6.15312C-0.0161592 5.97743 -0.00470085 5.80556 0.0564103 5.6375C0.117521 5.46944 0.209188 5.33194 0.33141 5.225C0.453632 5.11806 0.621688 5.04931 0.835577 5.01875L5.28141 4.62917L7.00016 0.55C7.07655 0.366667 7.19495 0.229167 7.35537 0.1375C7.51579 0.0458333 7.68002 0 7.84808 0C8.01613 0 8.18037 0.0458333 8.34079 0.1375C8.5012 0.229167 8.61961 0.366667 8.69599 0.55L10.4147 4.62917L14.8606 5.01875C15.0745 5.04931 15.2425 5.11806 15.3647 5.225C15.487 5.33194 15.5786 5.46944 15.6397 5.6375C15.7009 5.80556 15.7123 5.97743 15.6741 6.15312C15.6359 6.32882 15.5404 6.48542 15.3877 6.62292L12.0189 9.53333L13.0272 13.8646C13.0731 14.0632 13.0578 14.2427 12.9814 14.4031C12.905 14.5635 12.7981 14.6972 12.6606 14.8042C12.5231 14.9111 12.3627 14.9722 12.1793 14.9875C11.996 15.0028 11.8203 14.9569 11.6522 14.85L7.84808 12.5583Z" fill="#717171"/>
</svg>
