<svg width="18" height="17" viewBox="0 0 18 17" fill="none" xmlns="http://www.w3.org/2000/svg">
<path d="M1.6571 16.0417C1.19403 16.0417 0.802083 15.8812 0.48125 15.5604C0.160417 15.2396 0 14.8476 0 14.3846V4.86544C0 4.40237 0.160417 4.01042 0.48125 3.68958C0.802083 3.36875 1.19403 3.20833 1.6571 3.20833H5.5V1.6571C5.5 1.19403 5.66042 0.802083 5.98125 0.48125C6.30208 0.160417 6.69403 0 7.1571 0H10.2596C10.7226 0 11.1146 0.160417 11.4354 0.48125C11.7562 0.802083 11.9167 1.19403 11.9167 1.6571V3.20833H15.7596C16.2226 3.20833 16.6146 3.36875 16.9354 3.68958C17.2562 4.01042 17.4167 4.40237 17.4167 4.86544V14.3846C17.4167 14.8476 17.2562 15.2396 16.9354 15.5604C16.6146 15.8812 16.2226 16.0417 15.7596 16.0417H1.6571ZM6.875 3.20833H10.5417V1.6571C10.5417 1.58652 10.5123 1.5219 10.4534 1.46323C10.3948 1.40441 10.3301 1.375 10.2596 1.375H7.1571C7.08652 1.375 7.0219 1.40441 6.96323 1.46323C6.90441 1.5219 6.875 1.58652 6.875 1.6571V3.20833ZM16.0417 10.7708H11V12.375H6.41667V10.7708H1.375V14.3846C1.375 14.4551 1.40441 14.5198 1.46323 14.5784C1.5219 14.6373 1.58652 14.6667 1.6571 14.6667H15.7596C15.8301 14.6667 15.8948 14.6373 15.9534 14.5784C16.0123 14.5198 16.0417 14.4551 16.0417 14.3846V10.7708ZM7.79167 11H9.625V9.16667H7.79167V11ZM1.375 9.39583H6.41667V7.79167H11V9.39583H16.0417V4.86544C16.0417 4.79485 16.0123 4.73023 15.9534 4.67156C15.8948 4.61274 15.8301 4.58333 15.7596 4.58333H1.6571C1.58652 4.58333 1.5219 4.61274 1.46323 4.67156C1.40441 4.73023 1.375 4.79485 1.375 4.86544V9.39583Z" fill="#717171"/>
</svg>
