<svg width="19" height="15" viewBox="0 0 19 15" fill="none" xmlns="http://www.w3.org/2000/svg">
<path d="M6.26925 14.846C5.85375 14.846 5.49992 14.6998 5.20775 14.4075C4.91542 14.1153 4.76925 13.7615 4.76925 13.346V10.8463H7.65375V8.096C7.04475 8.146 6.4425 8.07133 5.847 7.872C5.2515 7.67267 4.73708 7.35125 4.30375 6.90775V5.65375H3.01925L0 2.6345C0.587167 1.98967 1.28392 1.52333 2.09025 1.2355C2.89675 0.947668 3.71792 0.803751 4.55375 0.803751C5.09992 0.803751 5.63033 0.866 6.145 0.9905C6.65983 1.11483 7.16275 1.31992 7.65375 1.60575V0H18.6538V12.346C18.6538 13.0448 18.4118 13.6362 17.9278 14.12C17.4438 14.604 16.8524 14.846 16.1538 14.846H6.26925ZM9.15375 10.8463H15.1538V12.346C15.1538 12.6293 15.2496 12.8668 15.4413 13.0585C15.6329 13.2502 15.8704 13.346 16.1538 13.346C16.4371 13.346 16.6746 13.2502 16.8663 13.0585C17.0579 12.8668 17.1538 12.6293 17.1538 12.346V1.5H9.15375V2.6L14.9038 8.35V9.40375H13.85L10.9038 6.45775L10.521 6.84025C10.307 7.05442 10.0884 7.24033 9.86525 7.398C9.64225 7.55567 9.40508 7.6845 9.15375 7.7845V10.8463ZM3.6575 4.15375H5.80375V6.20775C6.07425 6.37958 6.33708 6.49683 6.59225 6.5595C6.84742 6.62233 7.10125 6.65375 7.35375 6.65375C7.77558 6.65375 8.15667 6.58583 8.497 6.45C8.83733 6.31417 9.16392 6.08983 9.47675 5.777L9.85 5.40375L8.27675 3.83075C7.76792 3.32175 7.19742 2.94 6.56525 2.6855C5.93325 2.431 5.26275 2.30375 4.55375 2.30375C4.14342 2.30375 3.74825 2.348 3.36825 2.4365C2.98808 2.525 2.63192 2.64492 2.29975 2.79625L3.6575 4.15375ZM13.6538 12.346H6.26925V13.346H13.8808C13.7988 13.2025 13.7404 13.0458 13.7058 12.876C13.6711 12.706 13.6538 12.5293 13.6538 12.346Z" fill="#71716F"/>
</svg>
