<svg width="20" height="18" viewBox="0 0 20 18" fill="none" xmlns="http://www.w3.org/2000/svg">
<path d="M9.43542 16.024C9.52586 16.024 9.61783 16.0029 9.71133 15.9605C9.80468 15.9182 9.87839 15.87 9.93248 15.8159L17.264 8.48444C17.4708 8.27758 17.6266 8.05658 17.7312 7.82146C17.8357 7.58649 17.888 7.33975 17.888 7.08125C17.888 6.81328 17.8357 6.55531 17.7312 6.30735C17.6266 6.05924 17.4708 5.83649 17.264 5.6391L13.5973 1.97244C13.3999 1.76558 13.186 1.61425 12.9556 1.51846C12.7254 1.42282 12.4763 1.375 12.2083 1.375C11.9498 1.375 11.7016 1.42282 11.4635 1.51846C11.2255 1.61425 11.006 1.76558 10.8051 1.97244L10.2797 2.49792L11.9755 4.20773C12.1811 4.40405 12.3331 4.62794 12.4313 4.87942C12.5294 5.13089 12.5784 5.39176 12.5784 5.66202C12.5784 6.22149 12.3916 6.68808 12.0179 7.06177C11.6442 7.43547 11.1776 7.62231 10.6181 7.62231C10.3479 7.62231 10.0861 7.57762 9.83279 7.48825C9.57964 7.39903 9.3549 7.25626 9.15858 7.05994L7.42219 5.33775L3.43835 9.32158C3.36899 9.39094 3.31697 9.46856 3.28229 9.55442C3.24761 9.64012 3.23027 9.72828 3.23027 9.81887C3.23027 9.988 3.28787 10.1325 3.40306 10.2525C3.51826 10.3724 3.66042 10.4324 3.82954 10.4324C3.92014 10.4324 4.01211 10.4112 4.10546 10.3689C4.19896 10.3266 4.27275 10.2784 4.32683 10.2243L7.33762 7.21348L8.30356 8.17942L5.30675 11.1902C5.23754 11.2596 5.1856 11.3372 5.15092 11.423C5.11623 11.5087 5.09889 11.5969 5.09889 11.6875C5.09889 11.8508 5.15794 11.9915 5.27604 12.1096C5.39414 12.2277 5.53485 12.2868 5.69817 12.2868C5.78876 12.2868 5.88073 12.2656 5.97408 12.2233C6.06758 12.181 6.1413 12.1328 6.19523 12.0787L9.31189 8.97623L10.2781 9.94217L7.17537 13.0588C7.11197 13.1129 7.06148 13.1866 7.02389 13.28C6.98631 13.3735 6.96752 13.4655 6.96752 13.5559C6.96752 13.7194 7.02657 13.8602 7.14466 13.9782C7.26276 14.0963 7.40347 14.1554 7.56679 14.1554C7.65723 14.1554 7.74539 14.1381 7.83125 14.1034C7.91696 14.0687 7.99449 14.0167 8.06385 13.9473L11.1805 10.8449L12.1467 11.8108L9.03002 14.9275C8.96066 14.9968 8.90864 15.0773 8.87396 15.169C8.83928 15.2607 8.82194 15.3488 8.82194 15.4335C8.82194 15.6026 8.8848 15.7433 9.01054 15.8556C9.13628 15.9679 9.2779 16.024 9.43542 16.024ZM9.42121 17.3988C8.90298 17.3988 8.45114 17.219 8.06569 16.8596C7.68023 16.4999 7.47871 16.0521 7.46114 15.5162C6.9417 15.4809 6.50773 15.2964 6.15925 14.9627C5.81076 14.6289 5.62185 14.1905 5.59252 13.6476C5.04955 13.6124 4.61062 13.4227 4.27573 13.0783C3.94069 12.734 3.7614 12.3008 3.73787 11.7789C3.19261 11.7438 2.74253 11.5461 2.38762 11.1859C2.03272 10.8256 1.85527 10.3699 1.85527 9.81887C1.85527 9.54861 1.90668 9.28385 2.0095 9.02458C2.11232 8.76547 2.26189 8.53783 2.45821 8.34167L7.42219 3.39167L10.1071 6.07635C10.161 6.13976 10.2318 6.19033 10.3193 6.22806C10.407 6.26565 10.502 6.28444 10.6042 6.28444C10.771 6.28444 10.9149 6.22921 11.0359 6.11875C11.1571 6.00829 11.2176 5.86369 11.2176 5.68494C11.2176 5.58273 11.1989 5.48785 11.1613 5.40031C11.1235 5.31277 11.073 5.24196 11.0096 5.18787L7.79412 1.97244C7.59674 1.76558 7.38139 1.61425 7.1481 1.51846C6.91481 1.42282 6.66418 1.375 6.39621 1.375C6.13771 1.375 5.89242 1.42282 5.66035 1.51846C5.42813 1.61425 5.20867 1.76558 5.00196 1.97244L1.99094 4.99744C1.8241 5.16427 1.68752 5.36143 1.58119 5.58892C1.47485 5.81625 1.41229 6.04809 1.3935 6.28444C1.37455 6.47953 1.38334 6.67257 1.41985 6.86354C1.45621 7.05451 1.52023 7.23403 1.61189 7.40208L0.600124 8.41385C0.393263 8.11533 0.237583 7.78097 0.133083 7.41079C0.0284299 7.04061 -0.0145008 6.66516 0.00429091 6.28444C0.0230826 5.86246 0.118263 5.45493 0.289833 5.06183C0.461402 4.66874 0.701721 4.31765 1.01079 4.00858L4.01287 1.0065C4.35617 0.67268 4.72963 0.421513 5.13327 0.252999C5.53691 0.0843328 5.96087 0 6.40514 0C6.84927 0 7.2717 0.0843328 7.67244 0.252999C8.07332 0.421513 8.4406 0.67268 8.77427 1.0065L9.29975 1.53175L9.825 1.0065C10.1681 0.67268 10.5401 0.421513 10.9408 0.252999C11.3415 0.0843328 11.7641 0 12.2083 0C12.6526 0 13.0766 0.0843328 13.4802 0.252999C13.8838 0.421513 14.2526 0.67268 14.5864 1.0065L18.2301 4.65025C18.5638 4.98407 18.8194 5.36395 18.9969 5.7899C19.1743 6.21584 19.263 6.65095 19.263 7.09523C19.263 7.53951 19.1743 7.96201 18.9969 8.36275C18.8194 8.76349 18.5638 9.13069 18.2301 9.46435L10.8984 16.7819C10.6963 16.984 10.4687 17.1374 10.2155 17.242C9.96219 17.3465 9.69743 17.3988 9.42121 17.3988Z" fill="#717171"/>
</svg>
